<svg xmlns="http://www.w3.org/2000/svg" viewBox="0 0 500 500"><g id="freepik--Virus--inject-2"><path d="M211.23,117c10.08,24,3.79,27.31,13.48,55,6.18,17.65-12,42.95-25.37,51.23-33.12,20.53-74.75,19.66-99.19-10.69a70.55,70.55,0,0,1,10.69-99.2C141.18,88.9,198,85.61,211.23,117Z" style="fill:#263238"></path><path d="M106.57,97.64c-3.2,4.38-8.51,14.42-4.08,13.28s4.55-7.93,14.83-1.67,18.92,12.43,18.92,12.43l1.12-1.53,1.12-1.53s-8.49-6.36-17.58-14.26-2.65-10.07-2.9-14.64S109.78,93.26,106.57,97.64Z" style="fill:#263238"></path><path d="M199.76,246.48c3.16-4.42,8.35-14.53,3.93-13.33s-4.46,8-14.81,1.84-19.06-12.2-19.06-12.2l-1.11,1.54-1.1,1.54s8.57,6.26,17.75,14.06,2.76,10,3.07,14.6S196.61,250.9,199.76,246.48Z" style="fill:#263238"></path><path d="M216.34,113.68c-2.83-.41-8.82-.42-7.19,1.37s4.82.17,4.42,6.5-1.14,11.88-1.14,11.88l1,.14,1,.15s.88-5.52,2.33-11.7,4-3.71,6.11-5S219.18,114.1,216.34,113.68Z" style="fill:#263238"></path><path d="M83.72,226.74c4.82,2.5,15.55,6.23,13.75,2s-8.53-3.3-3.89-14.41S103,193.78,103,193.78l-1.68-.88L99.64,192s-5,9.35-11.44,19.53-9.55,4.14-14,5.09S78.91,224.23,83.72,226.74Z" style="fill:#263238"></path><path d="M65.24,155.86c.8,5.38,4.08,16.25,6.43,12.32s-2.34-8.84,9.38-11.61,22.19-4.46,22.19-4.46l-.28-1.87-.28-1.87s-10.51,1.44-22.53,2.21-8-9.84-12.35-8.38S64.44,150.49,65.24,155.86Z" style="fill:#263238"></path><path d="M228.49,201.17c4.21-3.42,11.9-11.79,7.32-11.81s-6.42,6.52-14.77-2.15-15.14-16.82-15.14-16.82l-1.47,1.19-1.47,1.2s6.59,8.31,13.38,18.25,0,10.42-.91,14.9S224.28,204.6,228.49,201.17Z" style="fill:#263238"></path><path d="M175.72,76.47c-5.4-.58-16.75-.15-13.54,3.11s9.14,0,8.86,12-1.29,22.6-1.29,22.6l1.88.2,1.89.2s1.26-10.53,3.55-22.35,7.4-7.33,11.22-9.84S181.12,77.05,175.72,76.47Z" style="fill:#263238"></path><path d="M132.93,251.51c5.4.58,14.79,1.29,13.55-3.12s-9.15,0-8.87-12,1.29-22.6,1.29-22.6l-1.88-.2-1.88-.2s-1.26,10.53-3.55,22.35-7.4,7.33-11.23,9.84S127.54,250.92,132.93,251.51Z" style="fill:#263238"></path><path d="M85.84,107.81c-4.4,2.31-12.81,8.43-8.71,9.27s6.94-4.69,12.87,4.61,10.54,17.83,10.54,17.83l1.53-.81,1.54-.8s-4.41-8.65-8.7-18.8,1.88-9.35,3.51-13.21S90.24,105.5,85.84,107.81Z" style="fill:#263238"></path><path d="M220.09,226.84c4.45-2.22,13-8.15,8.9-9.09s-7,4.55-12.76-4.87-10.17-18-10.17-18l-1.55.78-1.55.77s4.23,8.74,8.3,19-2.07,9.3-3.78,13.13S215.64,229.06,220.09,226.84Z" style="fill:#263238"></path><path d="M206.38,88.26c-4.5-2.09-15.23-1.77-12.63,1.52s8.33.86,6.91,11.79S197.28,122,197.28,122l1.7.37,1.69.36s2.17-9.46,5.41-20,5.41-1.17,9.14-3.08S217.89,93.62,206.38,88.26Z" style="fill:#263238"></path><path d="M102.49,248c3.56,3.46,12,9.56,11.52,5.4s-6.61-5.14.38-13.66,13.68-15.56,13.68-15.56L126.83,223l-1.24-1.2s-6.86,6.87-15.18,14.1-9.46,1.11-13.64.76S98.93,244.56,102.49,248Z" style="fill:#263238"></path><path d="M97.65,180l-.22-1.72s-9.65,1.08-20.66,1.52c-10.33-1.63-15.54-.46-13.76,4.51.61,4.94,3.37,15,5.61,11.42s-2-8.14,8.84-10.42,20.4-3.59,20.4-3.59Z" style="fill:#263238"></path><path d="M141.17,81.76c-5-.21-15.18-2.65-12.06.14s8.36-.58,8.83,10.43.19,20.71.19,20.71l1.74.08,1.73.07s.51-9.7,1.89-20.63,6.3-7.15,9.65-9.67S146.13,82,141.17,81.76Z" style="fill:#263238"></path><path d="M156.16,264.15c2.85-4.07,15.32.67,12.49-2.42s-8.37-.26-7.74-11.26,1.89-20.63,1.89-20.63l-1.72-.25-1.71-.24s-1.49,9.59-4,20.34-7,6.47-10.57,8.65S153.31,268.22,156.16,264.15Z" style="fill:#263238"></path><path d="M106.71,149.83s21.62-3.41,33.64,5.47c0,0-20.14,2.57-33.33,11.42a23.47,23.47,0,0,1,9.55-11.16S111.18,150.5,106.71,149.83Z" style="fill:#fff"></path><path d="M195.71,133.91s-15.11.24-20.36,10.75c0,0,13.9-.81,25.09,5.56C196,143.21,191,141,191,141S193,135.29,195.71,133.91Z" style="fill:#fff"></path><path d="M196.81,202.91c-8.75,1.81-17.12-2.94-18.71-10.61s3.85-17.12,12.6-18.93,16,7,17.55,14.64S205.55,201.1,196.81,202.91Z" style="fill:#fff;opacity:0.1"></path><path d="M143.83,134.71c-4.07,3.76-10,3.91-13.32.35a10.39,10.39,0,0,1,.64-14.07c4.06-3.75,10.7-1.4,14,2.17S147.89,131,143.83,134.71Z" style="fill:#fff;opacity:0.1"></path><path d="M182.44,216.12c-3.05,2.82-7.52,2.93-10,.26a7.79,7.79,0,0,1,.48-10.56c3-2.82,8-1,10.5,1.62S185.49,213.3,182.44,216.12Z" style="fill:#fff;opacity:0.1"></path><path d="M130.28,188.49c1.36-14.85,40.54-30.54,60.81-17s-9.45,11.63-25.25,15.37S128.07,212.54,130.28,188.49Z" style="fill:#407BFF"></path><path d="M144.46,155c.92,10.35-8.14,19.61-20.22,20.67s-25.43-6.2-26.34-16.55S112,141.3,124.07,140.23,143.55,144.69,144.46,155Z" style="fill:#fff;opacity:0.1"></path><path d="M132.47,176.47l4.1,9.33,6.46-9.33,9.33,2.26,4.26-7.28,11.53,4.61,3.42-7,7.86,1.37,2.87,5.36,8.1-7.79s-15.17-7.69-31.89-3.38S132.47,176.47,132.47,176.47Z" style="fill:#263238"></path></g><g id="freepik--Character--inject-2"><path d="M243.68,146a152.22,152.22,0,0,1-15.73-.73l.1-.9c8.61,1,23.09,1,29.8,0l.13.9A113.35,113.35,0,0,1,243.68,146Z" style="fill:#407BFF"></path><path d="M251.44,143.45v-.9c7.11,0,18.75-1.87,18.87-1.89l.14.9C270.34,141.58,258.62,143.45,251.44,143.45Z" style="fill:#407BFF"></path><path d="M258.46,170.44c-.12,0-11.64-2.53-18.74-2.91l.05-.91c7.17.39,18.77,2.91,18.88,2.93Z" style="fill:#407BFF"></path><path d="M213.88,140.46l-.87-.27a18.52,18.52,0,0,1,5.73-7.4l.52.74A17.67,17.67,0,0,0,213.88,140.46Z" style="fill:#fff"></path><path d="M207.91,140.24a18.57,18.57,0,0,1,1.07-9.3l.83.36a17.66,17.66,0,0,0-1,8.72Z" style="fill:#fff"></path><path d="M219.93,173.65a19.27,19.27,0,0,1-5.11-2.92l.59-.69a18.82,18.82,0,0,0,4.84,2.76Z" style="fill:#fff"></path><path d="M323.27,123.78c2.07,6.07,8,13.81,10.17,20.63.22,4.06-8.22,11.28-15.48,15.52-7.06-1.19-7.68-6.08-6.49-9,6.18-3,2.72-8.92.37-13.19Z" style="fill:#ff8b7b"></path><path d="M339.61,142.25a20,20,0,0,1,5.67,1.56,37.74,37.74,0,0,1,5,2.7,112.55,112.55,0,0,1,9.51,6.43,79.09,79.09,0,0,1,9,7.8,49.74,49.74,0,0,1,4.24,4.84,26.12,26.12,0,0,1,3.73,6.53l.23.58a5.53,5.53,0,0,1,.05,3.76A45,45,0,0,1,364.14,196,35.8,35.8,0,0,1,354,202a32.41,32.41,0,0,1-11.44,2.16,3.58,3.58,0,0,1-.63-7.11H342a25.42,25.42,0,0,0,14.92-8.57,32.79,32.79,0,0,0,7.31-15.6l.27,4.33a15.69,15.69,0,0,0-2.17-2.55,36.69,36.69,0,0,0-3.42-2.88c-2.52-1.89-5.37-3.67-8.26-5.42s-5.9-3.44-8.93-5.11a44.89,44.89,0,0,1-4.49-2.62,19.21,19.21,0,0,1-4-3.46l-.46-.56a7.63,7.63,0,0,1,6.8-12.39Z" style="fill:#ff8b7b"></path><path d="M347.11,195.29c-1.82-1.68-7.14-2.4-12.64,1.46-6.38,0-11.61,3.6-10.38,10.34s6.27,12.41,10.53,11.61c9.29-1.76,17.09-13.53,17.09-13.53A14.71,14.71,0,0,0,347.11,195.29Z" style="fill:#407BFF"></path><path d="M349.24,208.42c3.62-3.73,8.84-3.78,9.75-6.21,0-3.28-3.89-11-5.76-12.49-4.15,2.22-10.32,6.52-10.32,6.52S345.31,212.45,349.24,208.42Z" style="fill:#407BFF"></path><path d="M350.41,206.18a.51.51,0,0,1-.5-.45,16.92,16.92,0,0,0-4.23-9.12.5.5,0,1,1,.71-.71,17.74,17.74,0,0,1,4.52,9.73.51.51,0,0,1-.45.55Z" style="fill:#fff"></path><path d="M343.31,142.53A37.07,37.07,0,0,0,325,139.87c-8.15.79-19.57,2-24.4,5.21-5.7,3.81-5.86,5.51-5.74,9.62.59,21.47,11.9,29.09,12.49,63,1.42,0,43.26.72,43.26.72.74-20.87,3.07-43.87,1-65.39C351.08,147.43,348.12,144.38,343.31,142.53Z" style="fill:#263238"></path><path d="M311.4,158.09c-2.87,2.47-6.09,3.33-9.41,4.09s-6.63,1.47-10,2-6.85.92-10.41,1.15c-.9,0-1.78.1-2.7.13l-2.78.05c-1,0-1.95-.06-2.9-.11s-1.82-.14-2.69-.23c-3.47-.37-6.76-.85-10.07-1.35s-6.56-1-9.83-1.6c-6.52-1.14-13-2.36-19.48-3.69a3.58,3.58,0,0,1,.85-7.09h0c6.54.24,13.11.46,19.64.65,3.27.08,6.53.18,9.77.21s6.49.07,9.58,0c.77,0,1.48-.09,2.23-.13l2-.27,2.13-.4c.71-.14,1.45-.33,2.18-.49,2.93-.72,5.92-1.61,8.93-2.5l9.09-2.74c3-1,6.1-1.91,9.49-1.39l.44.07a7.82,7.82,0,0,1,3.93,13.67Z" style="fill:#ff8b7b"></path><path d="M237.94,161.55c-.87,2.33-5.3,5.36-11.95,4.38-5.71,2.84-12,2-13.92-4.58s0-13.9,4.2-15.1c9.09-2.6,21.34,4.41,21.34,4.41A14.69,14.69,0,0,1,237.94,161.55Z" style="fill:#407BFF"></path><path d="M233.94,148.87c4.92,1.71,9.6-.59,11.51,1.17,1.5,2.91,1.46,11.57.46,13.75-4.7-.12-12.15-1.2-12.15-1.2S228.63,147,233.94,148.87Z" style="fill:#407BFF"></path><path d="M236.54,161.68l-.15,0a.5.5,0,0,1-.32-.63,16.92,16.92,0,0,0-.32-10.06.51.51,0,0,1,.29-.65.5.5,0,0,1,.65.29,17.73,17.73,0,0,1,.33,10.73A.5.5,0,0,1,236.54,161.68Z" style="fill:#fff"></path><path d="M300.62,126.2c.22.63.06,1.25-.35,1.39s-.93-.26-1.14-.89-.06-1.25.35-1.39S300.41,125.57,300.62,126.2Z" style="fill:#263238"></path><path d="M300.28,126.58a23.54,23.54,0,0,1,0,6.51,3.87,3.87,0,0,0,3.09-1Z" style="fill:#ff5652"></path><path d="M298,123.25a.41.41,0,0,0,.37.07,3,3,0,0,1,2.79.38.39.39,0,0,0,.55-.06.39.39,0,0,0-.06-.55,3.84,3.84,0,0,0-3.52-.52.38.38,0,0,0-.25.49A.41.41,0,0,0,298,123.25Z" style="fill:#263238"></path><path d="M321.37,116.74c2.18,7.9,3.86,12.41,1.3,17.7-3.86,7.94-14.67,7.6-19.18.49-4.06-6.4-6.94-18.24-.39-23.86A11.29,11.29,0,0,1,321.37,116.74Z" style="fill:#ff8b7b"></path><path d="M309.22,126.08a4.66,4.66,0,0,1-5.85-4.5,12.28,12.28,0,0,1,1.18-5s-5.43,2.29-8.17-1.5c-3.11-4.3,1.49-9.77,5.78-10.86-.33,4.1,4.55,1.51,7.06.53,4.91-1.92,10.08-2.5,14.41-.33a4.81,4.81,0,0,0-2.58,3.16s7.83.34,7.5,5.92S323.3,128,329.13,130A16.66,16.66,0,0,1,309.22,126.08Z" style="fill:#263238"></path><path d="M311.46,135.79l-.94-.33c1-2.65,2.08-6.44.9-8.91a3.91,3.91,0,0,0-2.37-2,3,3,0,0,0-2.63.17c-1.59.95-2.36,3.38-2.56,4.67l-1-.16c.29-1.81,1.25-4.3,3-5.36a3.92,3.92,0,0,1,3.47-.26,4.91,4.91,0,0,1,2.95,2.55C313.66,128.93,312.47,133,311.46,135.79Z" style="fill:#407BFF"></path><path d="M312.1,124.34a6.9,6.9,0,0,1-2.11,4.91c-1.78,1.7-3.84.4-4.32-1.88-.44-2.05,0-5.4,2.21-6.23A3.16,3.16,0,0,1,312.1,124.34Z" style="fill:#ff8b7b"></path><path d="M304,129c-1.11-2.11-3.64,1.54-4.15,3.21s.58,5.15,5.11,6.83c8.54,3.17,8.72-3.66,6.62-3.87C310.52,135.06,304.17,134.24,304,129Z" style="fill:#407BFF"></path><path d="M312.29,297.67c15.67-25,28.08-79.46,28.08-79.46l-32.17-.56S293,276.33,293,296.33c0,25.69.86,103.45.86,103.45l9.39,1.9S318.62,335,312.29,297.67Z" style="fill:#ff8b7b"></path><path d="M304.54,404.08l.76,5.05c.27,2.08-.92,2.95-1.86,3.15-4.2.86-7.86.12-11.89.78-4.72.77-4,2.76-10.75,2.76-3.38,0-3.91-3.39-2.48-3.79,10.27-2.82,9.69-6.17,13.31-9.69,0,0,.57-18.91.32-36.58C304.84,367.46,310,373,310,373S307.28,390.35,304.54,404.08Z" style="fill:#407BFF"></path><path d="M290,397.85h0Z" style="fill:#407BFF"></path><path d="M374,298.67c-3.34-32.56-9.9-61.49-24.46-80.3l-27.32-.48s24.37,61.25,32.58,86c8.53,25.73,41.25,97.7,41.25,97.7l8.32-2.06S391.67,325.22,374,298.67Z" style="fill:#ff8b7b"></path><path d="M407.22,402.67l2.12,5.29c.92,2.08.29,3.25-1.32,3.67-3.17.84-6.1.1-10.14.87-4.72.9-4.66,3.32-12,3.32-3.4,0-5.12-2.36-2.17-3.32,6-1.95,8.18-7.29,10.6-10.22a243.25,243.25,0,0,1-15-34.21c13.55-1,20.61,2,20.61,2S404.26,388.63,407.22,402.67Z" style="fill:#407BFF"></path><path d="M317.9,217.65s18.54,59.17,29,73c24.23,2.44,34.86-11.27,34.86-11.27-10.77-15.66-13.3-45.44-31.13-61.44C340.19,217.31,317.9,217.65,317.9,217.65Z" style="fill:#407BFF"></path><path d="M339.38,245c-3.48,5.94-5.78,10.56-7,14.53,1.86,4.88,3.77,9.67,5.64,14.05C339.62,265.29,340.53,252.83,339.38,245Z" style="opacity:0.2"></path><path d="M307.25,214.1l43.61,1a.48.48,0,0,1,.48.49v2.86a.49.49,0,0,1-.49.49l-43.39-.28a.5.5,0,0,1-.49-.46l-.22-3.58A.48.48,0,0,1,307.25,214.1Z" style="fill:#407BFF"></path><path d="M307.14,217.11c-5.46,12.5-9.92,41.39-15.76,63.72,27.84,12.17,35.67,8.34,35.67,8.34s23.45-54.56,13.66-71.28C330.32,217.31,307.14,217.11,307.14,217.11Z" style="fill:#407BFF"></path><path d="M311.4,273.51c-1.28,4.94-5.59,8-9.62,6.77s-6.26-6.19-5-11.14,5.59-8,9.62-6.77S312.69,268.57,311.4,273.51Z" style="fill:#fff"></path><polygon points="309.4 270.57 306.44 269.68 307.38 266.06 303.84 265 302.9 268.62 299.94 267.74 298.81 272.08 301.77 272.97 300.83 276.6 304.37 277.65 305.31 274.03 308.27 274.91 309.4 270.57" style="fill:#407BFF"></polygon></g></svg>